<?xml version="1.0" encoding="UTF-8"?>
<svg id="Layer_1" data-name="Layer 1" xmlns="http://www.w3.org/2000/svg" viewBox="0 0 1317.12 905.02">
  <defs>
    <style>
      .cls-1 {
        fill: #ee3a4a;
        stroke-width: 0px;
      }
    </style>
  </defs>
  <g>
    <polygon class="cls-1" points="331.31 320.62 331.31 243.85 138.51 264.25 138.51 752.4 215.17 744.43 215.17 548.49 302.3 539.48 302.3 462.72 215.17 471.76 215.17 332.87 331.31 320.62"/>
    <path class="cls-1" d="M723.91,374.96v-52.42c0-39.14-11.62-68.2-34.85-87.18-20.91-17.36-47.86-24.29-80.85-20.8l-115.7,12.24v488.81l76.67-7.97v-196.28l34.85-3.65,39.73,192.18,78.06-8.11-43.91-211.37c4.19-3.24,7.9-6.65,11.15-10.26,23.23-23.86,34.85-55.6,34.85-95.21ZM647.24,383.02c0,16.76-3.49,28.78-10.46,36.03-6.04,6.22-15.57,10.02-28.58,11.38l-39.03,4.1v-139l39.03-4.12c13.01-1.37,22.54.41,28.58,5.36,6.97,6.26,10.46,17.53,10.46,33.84v52.41Z"/>
    <polygon class="cls-1" points="958.79 254.42 958.79 177.47 756.66 198.86 756.66 688.16 958.79 667.16 958.79 590.21 833.33 603.28 833.33 483.79 919.76 474.05 919.76 397.11 833.33 406.87 833.33 267.66 958.79 254.42"/>
    <polygon class="cls-1" points="1179.12 539.79 996.73 536.32 996.73 565.35 1087.67 565.81 1025.65 589.02 1025.65 605.5 1087.67 615.79 996.73 635.19 996.73 664.22 1179.12 622.76 1179.12 606.8 1088.45 590.85 1179.12 555.76 1179.12 539.79"/>
    <path class="cls-1" d="M1179.12,452.63v-29.32l-182.39,55.72v28.77l182.39,17.58v-29.31l-22.96-1.76v-35.13l22.96-6.56ZM1127.5,492.3l-5.96-.41-65.4-4.68,65.4-18.35,5.96-1.66v25.1Z"/>
    <polygon class="cls-1" points="1179.12 376.99 1025.4 393.12 1025.4 363.82 996.73 366.83 996.73 454.19 1025.4 451.19 1025.4 421.89 1179.12 405.78 1179.12 376.99"/>
    <path class="cls-1" d="M1170.52,266.92c-8.34-7.85-19.71-11.01-34.13-9.49l-23.45,2.47v28.78l23.45-2.47c6.43-.68,10.77.09,13.03,2.29,2.09,2.05,3.13,5.6,3.13,10.66s-1.04,8.58-3.13,11.06c-2.43,2.87-6.77,4.64-13.03,5.3l-96.93,10.2c-6.25.66-10.59-.19-13.03-2.55-2.08-2.04-3.13-5.51-3.13-10.4s1.04-8.83,3.13-11.32c2.26-2.68,6.6-4.36,13.03-5.03l16.15-1.7v-28.78l-16.15,1.7c-14.42,1.52-25.8,7.08-34.13,16.68-7.12,8.43-10.68,18.91-10.68,31.46s3.56,21.95,10.68,29.22c8.69,7.81,20.07,10.97,34.13,9.49l96.93-10.19c14.07-1.48,25.45-7.03,34.13-16.67,7.13-8.77,10.68-19.27,10.68-31.49s-3.56-22.31-10.68-29.24Z"/>
    <polygon class="cls-1" points="1101.87 190.62 1179.12 182.46 1179.12 153.67 1101.87 161.84 1070.78 165.13 996.15 173.02 996.15 201.8 1071.25 193.86 1071.18 223.17 996.73 231.03 996.73 259.8 1179.12 240.57 1179.12 211.77 1099.85 220.14 1099.91 190.83 1101.87 190.62"/>
    <polygon class="cls-1" points="444.83 719.67 444.83 231.69 367.84 239.83 367.84 727.67 444.83 719.67"/>
  </g>
  <path class="cls-1" d="M0,905.02V139.49L1317.12,0v771.74L0,905.02ZM59.72,193.22v645.72l1197.67-121.18V66.38L59.72,193.22Z"/>
</svg>