<svg width="90" height="40" viewBox="0 0 90 40" xmlns="http://www.w3.org/2000/svg">
  <!-- 
    Shifted X to 2.9 (Center) 
    Shifted Y to 6 (Moving it further down from the top)
  -->
  <path fill-rule="evenodd" clip-rule="evenodd" 
    d="M44.3603 21.2225C44.3603 28.1999 48.3137 32.7027 55.7762 31.9097L55.7743 31.9078V25.9708C52.5145 26.1696 50.8817 24.8349 50.8817 21.2731V12.2694H55.4781V6.48053H50.8817V0H44.3603V21.2225ZM6.5234 17.2321C6.5234 13.6196 9.29019 11.3926 13.4423 12.1349V6.00316C4.98997 4.96269 0 10.0092 0 17.2321V31.7714H6.5234V17.2321ZM27.5705 12.0102C31.3758 12.0102 34.4719 15.1122 34.4719 18.9194C34.4719 22.7267 31.3739 25.8286 27.5705 25.8286C23.7672 25.8286 20.6691 22.7306 20.6691 18.9194C20.6691 15.1083 23.7652 12.0102 27.5705 12.0102ZM27.5705 5.84144C20.3535 5.84144 14.5042 11.6965 14.5042 18.9194C14.5042 26.1423 20.3535 31.9974 27.5705 31.9974C34.7876 31.9974 40.6368 26.1423 40.6368 18.9194C40.6368 11.6965 34.7876 5.84144 27.5705 5.84144ZM78.008 18.9194C78.008 15.1122 74.9119 12.0102 71.1066 12.0102C67.3032 12.0102 64.2052 15.1083 64.2052 18.9194C64.2052 22.7306 67.3032 25.8286 71.1066 25.8286C74.91 25.8286 78.008 22.7267 78.008 18.9194ZM58.0403 18.9194C58.0403 11.6965 63.8896 5.84144 71.1066 5.84144C78.3237 5.84144 84.1729 11.6965 84.1729 18.9194C84.1729 26.1423 78.3237 31.9974 71.1066 31.9974C63.8896 31.9974 58.0403 26.1423 58.0403 18.9194Z" 
    fill="#5a75b7"
    transform="translate(2.9, 6)"
  />
</svg>
