<svg version="1.1" xmlns="http://www.w3.org/2000/svg" x="0" y="0" width="2500" viewBox="0 0 1024 1024" enable-background="new 0 0 1024 1024" xml:space="preserve" height="2500"><path fill="#263780" opacity="1" d="M542 1025H1V1h1024v1024zM319.679 621.442c.803.18 1.605.514 2.409.516 17.488.035 34.977.047 52.465-.007.76-.002 1.52-.664 2.676-1.583.205-.259.453-.494.61-.78 42.96-78.17 85.914-156.344 128.853-234.527.772-1.405 1.344-2.92 2.262-4.939h-5.45c-16.164-.001-32.33.112-48.491-.093-3.664-.047-5.58 1.139-7.342 4.357-42.373 77.363-84.868 154.659-127.294 231.993-.741 1.35-.901 3.02-.698 5.063m387.08-1.346c-6.565-12.124-13.074-24.278-19.706-36.365-36.556-66.626-73.163-133.224-109.648-199.89-1.476-2.696-2.957-3.81-6.088-3.778-16.155.163-32.313.079-48.47.08h-6.904c44.318 80.78 88.21 160.784 132.749 241.295.798.18 1.596.512 2.395.514 17.38.033 34.762.053 52.143-.02 1.207-.005 2.41-.752 3.53-1.836m-77.22 143.881c-1.127-.98-2.18-2.061-3.393-2.92-8.67-6.15-19.674-6.381-28.56-.656-8.584 5.529-13.155 16.19-11.1 25.888 2.305 10.88 10.033 18.493 20.646 20.338 10.225 1.778 20.407-2.955 25.913-12.048 5.72-9.445 4.656-20.04-3.505-30.602M510.953 253.559c2.315-.154 4.681-.054 6.937-.507 10.31-2.069 16.932-8.537 19.659-18.41 2.703-9.784.005-18.574-7.696-25.325-7.5-6.577-16.246-8.18-25.622-4.655-11.204 4.213-17.37 14.416-16.287 26.38 1.02 11.256 9.745 20.05 23.009 22.517M398.16 799.334c.998.881 1.945 1.827 3 2.634 11.636 8.897 28.35 6.17 36.5-5.935 7.952-11.812 4.273-28.32-7.977-35.795-10.218-6.237-23.778-4.176-31.875 4.843-8.653 9.638-8.706 22.815.352 34.253m342.284-128.346c7.645 9.284 18.759 12.484 29.416 8.47 9.736-3.668 16.373-13.644 16.058-24.135-.331-11.018-7.64-20.608-18.087-23.733-9.642-2.884-20.432.423-26.484 8.117-7.186 9.136-7.63 19.574-.903 31.28M397.546 228.043c-.666.742-1.38 1.445-1.99 2.23-7.237 9.319-7.17 21.555.15 30.888 7.32 9.33 19.972 12.49 30.467 7.608 10.53-4.9 15.93-15.962 14.03-27.604-2.66-16.311-24.165-29.512-42.657-13.122m91.214 570.526c.42 15.001 11.002 25.926 25.178 25.992 13.47.063 24.701-10.538 25.25-23.835.567-13.79-9.709-25.778-22.888-26.7-14.295-1.002-25.967 9.037-27.54 24.543m129.922-576.955c-10.447-3.45-19.46-.758-26.733 7.073-6.762 7.28-8.426 16.051-5.115 25.478 3.788 10.785 14.554 17.69 25.613 16.719 11.587-1.018 20.884-9.597 22.757-20.996 1.99-12.12-4.046-22.824-16.522-28.274m-267.3 496.62c-7.458-9.693-18.272-13.142-29.189-9.309-10.3 3.616-16.636 12.63-16.647 23.682-.011 11.094 6.72 20.542 17.05 23.931 10.162 3.334 20.836.269 27.503-7.897 7.125-8.727 7.708-18.96 1.283-30.407M331.205 320.58c.988-.134 1.98-.243 2.964-.408 12.746-2.141 21.772-13.892 20.742-26.991-1.018-12.945-12.066-23.139-25.008-23.074-13.696.07-24.938 11.035-25.14 24.523-.224 14.864 10.023 25.264 26.442 25.95m389.024-18.018c2.998-9.74 1.188-18.455-5.994-25.726-6.935-7.02-15.533-8.718-24.836-6.268-10.882 2.866-18.785 14.164-18.058 25.16.825 12.503 9.398 22.1 21.461 24.022 11.425 1.822 22.4-4.807 27.427-17.188M279.166 678.797c.977-.632 1.994-1.21 2.924-1.904 7.937-5.929 11.605-16.412 9.196-26.208-2.402-9.767-10.548-17.323-20.36-18.884-9.988-1.59-19.979 2.922-25.304 11.427-5.805 9.27-4.97 21.515 2.03 29.8 7.492 8.867 19.067 11.148 31.514 5.77m-15.2-332.271c-.985.145-1.981.243-2.956.442-13.678 2.78-22.374 16.332-19.293 30.046 3.124 13.9 16.44 22.348 30.12 19.107 12.642-2.995 20.541-14.32 19.234-27.575-1.268-12.863-11.95-21.853-27.104-22.02m-56.182 212.79c-1.535 12.296 4.377 23.043 15.14 27.517 9.9 4.116 22.045.992 28.849-7.42 6.485-8.018 7.503-19.17 2.559-28.016-5.09-9.107-14.83-14.276-24.477-12.991-11.46 1.526-18.885 8.32-22.07 20.91m605.868-13.449c-7.593-8.148-16.75-10.513-27.235-6.931-9.57 3.268-16.133 12.112-16.533 21.7-.473 11.326 4.427 19.62 14.46 24.707 9.925 5.034 22.472 2.052 29.783-6.777 7.832-9.458 7.825-21.327-.475-32.699m-134.832 168.46c-9.046 10.74-9.235 24.698-.469 34.561 8.055 9.062 22.044 10.919 32.276 4.285 12.128-7.864 15.154-24.763 6.525-36.43-8.937-12.083-25.817-13.388-38.332-2.417m94.756-322.126c12.468-8.838 15.61-24.347 7.27-35.874-8.359-11.552-23.886-14.137-35.36-5.888-10.64 7.65-13.345 22.223-6.293 33.893 6.82 11.288 20.646 14.685 34.383 7.869M239.94 488.744c1.367-.608 2.78-1.128 4.092-1.836 12.367-6.671 16.593-23.145 9.121-35.45-7.436-12.246-23.452-15.733-35.241-7.672-9.975 6.82-13.674 19.417-8.945 30.456 5.317 12.41 16.472 17.849 30.973 14.502m546.894-48.712c-.767.32-1.55.608-2.298.967-12.726 6.101-18.103 19.876-12.776 32.709 5.222 12.58 18.965 18.527 31.843 13.781 12.574-4.634 19.212-18.313 15.214-31.35-3.877-12.641-17.824-19.936-31.983-16.107m-204.49 423.554c3.656-9.368 1.8-18.594-4.863-24.187-6.667-5.597-16.068-6.428-23.267-2.058-7.038 4.273-10.903 12.563-9.53 20.44 1.546 8.865 7.27 14.826 15.803 16.456 8.792 1.68 16.385-1.83 21.857-10.651m118.673-69.413c-11.972-3.092-22.46 2.396-25.644 13.419-3.063 10.604 2.91 21.594 13.522 24.875 9.747 3.014 20.37-2.3 24.315-12.163 4.063-10.158-.608-20.685-12.193-26.131m-384.22 8.23c-9.47 13.658 1.184 30.777 15.267 31.543 9.21.502 17.995-5.908 20.511-15.025 2.452-8.886-2-18.82-10.411-23.229-8.408-4.407-18.158-2.023-25.367 6.712m155.36 32.78c-1.483-.175-2.965-.474-4.451-.504-8.531-.173-14.732 3.876-18.475 11.255-3.706 7.307-2.83 14.654 2.225 21.06 5.173 6.558 12.102 9.058 20.389 7.074 8.405-2.012 14.576-9.226 15.167-17.645.692-9.857-4.044-16.907-14.855-21.24M232.5 756.824c1.317-.182 2.65-.287 3.947-.56 8.208-1.728 13.22-7.13 15.194-14.866 2.125-8.328-.7-15.544-7.537-20.792-6.406-4.917-13.513-5.263-20.693-1.794a19.51 19.51 0 0 0-10.81 20.652c1.572 9.844 8.054 15.75 19.9 17.36m560.059-40.818c-11.033 3.44-16.9 11.692-15.801 22.225.974 9.337 8.574 16.915 18.077 17.68 8.019.647 14.313-2.707 18.49-9.464 4.175-6.756 4.357-13.921.185-20.758-4.556-7.468-11.225-11.102-20.951-9.683m105.245-217.309c-7.245-6.232-16.06-7.547-23.452-3.497-7.048 3.863-11.183 12.034-10.187 20.133.996 8.095 7.432 15.331 15.28 17.18 7.893 1.859 16.335-1.565 20.81-8.44 5.192-7.98 4.52-16.567-2.45-25.376M223.561 310.16c.777.287 1.539.624 2.332.852 8.03 2.308 14.899.07 20.207-6.064 5.635-6.514 6.431-14.107 2.707-21.85-3.539-7.356-9.477-11.35-17.852-11.227-8.788.128-16.633 6.06-18.908 14.277-2.672 9.653 1.084 17.92 11.514 24.012m-41.827 309.677c-5.989-6.923-13.517-8.913-22.01-6.046-7.989 2.697-12.384 8.65-12.974 17.128-.61 8.737 3.472 15.756 11.091 19.473 7.97 3.89 17.442 2.16 23.27-4.246 6.337-6.967 6.735-16.748.623-26.31M344.96 230.58c.987-.893 2.068-1.703 2.947-2.692 5.637-6.345 6.904-13.72 3.782-21.395-3.07-7.548-9.22-11.923-17.391-12.205-8.308-.288-14.804 3.502-18.714 11.019-3.955 7.604-2.322 16.772 3.878 23.004 6.388 6.42 15.784 7.433 25.498 2.27m101.519-74.682c-11.218 3.094-17.63 13.123-15.253 23.854 2.354 10.62 12.836 17.51 23.369 15.36 10.68-2.178 17.188-12.304 15.335-23.858-1.623-10.127-11.447-16.845-23.451-15.356m424.34 492.6c7.508-4.75 10.932-11.64 9.643-20.352-1.189-8.033-5.866-13.732-13.768-16.163-8.512-2.619-17.649 1.02-22.605 8.622-4.59 7.043-3.914 16.502 1.664 23.261 6 7.268 14.762 9.065 25.065 4.631M158.85 377.108c-11.676 5.165-16.632 16.917-11.532 27.346 4.694 9.596 15.504 13.958 25.265 10.193 9.578-3.694 14.743-14.688 11.569-24.626-3.405-10.659-13.054-15.812-25.302-12.913m618.8-96.782c-4.24 7.721-4.084 15.35 1.158 22.444 4.605 6.23 11.102 8.906 18.795 7.763 8.17-1.213 13.451-6.093 15.877-13.946 2.894-9.366-1.516-19.346-10.446-23.942-8.512-4.38-18.025-1.702-25.384 7.681m87.021 134.016c8.54-1.925 13.582-7.394 15.474-15.747 1.782-7.868-.57-14.554-6.854-19.586-7.323-5.865-16.93-5.776-24.49-.08-6.971 5.253-9.541 14.43-6.405 22.871 3.193 8.595 11.535 13.543 22.275 12.542M591.327 189.84c6.61-7.49 7.995-16.526 3.733-24.336-3.892-7.131-12.324-11.325-20.153-10.022-8.086 1.345-15.14 8.054-16.679 15.86-1.558 7.91 2.354 16.684 9.39 21.06 7.11 4.422 15.604 3.66 23.709-2.562m103.104 43.436c10.496-.786 17.658-6.75 19.345-16.107 1.588-8.808-3.137-18.343-11.126-21.926-7.73-3.468-15.029-2.235-21.334 3.242-6.406 5.565-8.128 12.902-5.692 20.824 2.661 8.651 8.936 13.278 18.807 13.967M151.554 532.323c10.14-5.788 14.2-15.93 10.284-25.685-3.75-9.34-14.137-14.604-23.614-11.967-10.51 2.924-16.852 14.255-13.833 24.717 3.353 11.619 14.104 17.032 27.163 12.935m827.351 428.302-10.6-15.501c-3.491 12.088-11.515 19.635-23.405 23.895 12.127 4.121 19.905 12.085 23.548 23.882 3.488-5.312 5.983-10.735 9.944-14.689 3.936-3.93 9.346-6.382 14.424-9.687-2.322-.992-4.668-1.768-6.782-2.957-2.304-1.297-4.392-2.976-7.129-4.943m-461.261-72.153c-7.099-1.081-11.903.972-14.753 6.305-2.555 4.781-2.009 10.459 1.387 14.41 3.568 4.155 8.985 5.757 13.895 4.045 5.17-1.802 8.297-5.372 8.827-10.881.592-6.164-2.286-10.558-9.356-13.88M69.23 586.958c5.092 7.823 13.61 9.77 19.863 4.54 4.876-4.08 6.064-11.237 2.775-16.71-3.241-5.394-10.258-7.66-16.103-5.202-6.362 2.674-8.887 8.862-6.535 17.372m7.62-152.947c-9.093 2.447-13.301 9.696-10.171 17.52 2.318 5.797 8.687 9.295 14.456 7.94 6.734-1.58 10.789-7.131 10.154-13.901-.661-7.051-5.699-11.351-14.44-11.559m62.23 283.637c4.224-3.787 5.868-8.367 4.187-13.914-1.418-4.68-4.51-7.7-9.29-8.802-5.72-1.319-11.338 1.138-14.106 6.025-2.925 5.163-2.07 11.464 2.118 15.625 4.361 4.332 10.218 4.861 17.09 1.066m822.019-140.222c-2.54-7.148-7.347-10.719-13.511-10.035-6.195.687-11.059 5.332-11.647 11.125-.813 7.997 4.874 14.586 12.65 14.66 7.995.075 13.143-6.042 12.508-15.75M512.57 139.767c1.46-.268 2.984-.356 4.372-.835 7.054-2.436 10.475-10.123 7.64-16.971-2.873-6.94-11.135-9.839-17.886-6.274-4.672 2.467-7.239 7.508-6.566 12.899.73 5.852 4.445 9.406 12.44 11.181M941.223 456.47c5.435 3.273 10.721 3.123 15.648-.955 3.976-3.29 5.367-9.2 3.55-14.032-1.924-5.11-6.485-8.456-11.68-8.565-5.277-.11-10.391 2.991-12.144 7.867-2.114 5.883-.793 11.077 4.626 15.685M652.007 156.325c4.674 6.347 10.39 8.246 16.314 5.418 5.549-2.65 8.523-8.704 7.12-14.493-1.77-7.303-8.468-11.37-15.577-9.459-7.721 2.076-10.913 9.057-7.857 18.534m-513.686 176.71c7.748-3.329 10.803-9.604 8.156-16.757-2.27-6.136-9.194-9.72-15.384-7.963-6.604 1.874-10.456 8.335-9.048 15.18 1.44 7.002 7.803 10.983 16.276 9.54m744.412 375.763c2.766 10.022 12.968 13.964 20.32 7.85 4.73-3.933 6.152-10.315 3.502-15.725-2.677-5.466-8.64-8.28-14.564-6.874-5.927 1.406-9.438 6.626-9.258 14.75m-80.935 112.757c7.728-4.578 9.924-12.069 5.515-18.81-4.08-6.239-11.815-7.783-17.823-3.56-4.828 3.394-6.722 9.971-4.466 15.502 2.541 6.23 8.165 8.739 16.774 6.868m-450.193 55.889c1.135 9.717 8.549 15.025 16.843 12.059 5.943-2.126 9.346-7.948 8.302-14.205-1.058-6.344-6.078-10.63-12.464-10.64-6.962-.013-11.49 4.28-12.681 12.786m302.059 11c8.484-4.032 8.603-16.679 1.94-21.38-5.144-3.63-12.007-3.544-16.59.507-4.445 3.928-5.365 11.021-2.13 16.425 3.22 5.382 9.166 7.165 16.78 4.447m-425.206-89.98c-5.584 2.353-8.78 6.358-8.564 12.616.184 5.319 2.841 9.155 7.646 11.226 4.812 2.074 9.429 1.271 13.46-2.116 4.196-3.527 5.426-9.757 3.083-14.974-2.525-5.622-7.21-7.838-15.625-6.752m567.856-594.456c-5.976-.142-10.28 2.531-12.502 8.025-1.973 4.876-1.016 9.533 2.485 13.433 3.564 3.97 8.134 4.971 13.174 3.442 5.394-1.637 8.802-6.731 8.63-12.584-.185-6.238-3.76-10.238-11.787-12.316m91.258 126.067c6.071 3.305 11.804 2.85 16.097-1.278 3.838-3.692 4.888-9.788 2.541-14.765-2.513-5.331-7.569-8.052-13.54-7.042-4.804.813-8.212 3.56-9.806 8.222-1.952 5.708-.126 10.434 4.708 14.863M359.208 137.761c-6.227 1.793-9.66 5.389-10.247 10.733-.601 5.464 1.93 10.582 6.454 13.05 4.63 2.526 10.46 1.865 14.403-1.633 3.924-3.483 5.282-9.036 3.449-14.11-2.037-5.638-6.161-8.174-14.059-8.04m-117.082 71.711c-6.301-6.047-13.948-6.139-19.24-.23-4.681 5.227-3.972 13.52 1.562 18.27 4.474 3.838 11.503 3.873 16.08.08 5.155-4.273 5.912-10.6 1.598-18.12"/><path fill="#FCFDFE" opacity="1" d="M648.046 620.93 515.943 380.144h6.904c16.157-.002 32.315.082 48.47-.08 3.13-.032 4.612 1.08 6.088 3.777 36.485 66.666 73.092 133.264 109.648 199.89 6.632 12.087 13.14 24.241 19.296 36.692-19.708.387-39.006.447-58.303.507m-329.001-.01c.43-1.521.59-3.19 1.332-4.541 42.426-77.334 84.921-154.63 127.294-231.993 1.762-3.218 3.678-4.404 7.342-4.357 16.161.205 32.327.092 48.491.093h5.45c-.918 2.02-1.49 3.534-2.262 4.939a992459 992459 0 0 1-128.853 234.528c-.157.285-.405.52-1.26.995-19.612.255-38.573.296-57.534.336"/><path fill="#FBFCFD" opacity="1" d="M629.782 764.24c7.92 10.3 8.985 20.894 3.264 30.34-5.506 9.092-15.688 13.825-25.913 12.047-10.613-1.845-18.34-9.458-20.646-20.338-2.055-9.698 2.516-20.36 11.1-25.888 8.886-5.725 19.89-5.494 28.56.655 1.212.86 2.266 1.942 3.635 3.185"/><path fill="#FCFCFE" opacity="1" d="M510.542 253.481c-12.853-2.389-21.579-11.183-22.598-22.438-1.083-11.965 5.083-22.168 16.287-26.38 9.376-3.526 18.121-1.923 25.622 4.654 7.7 6.751 10.4 15.54 7.696 25.326-2.727 9.872-9.349 16.34-19.66 18.41-2.255.452-4.621.352-7.347.428"/><path fill="#FBFCFD" opacity="1" d="M397.917 799.07c-8.815-11.174-8.762-24.35-.109-33.989 8.097-9.02 21.657-11.08 31.875-4.843 12.25 7.476 15.929 23.983 7.977 35.795-8.15 12.105-24.864 14.832-36.5 5.935-1.055-.807-2.002-1.753-3.243-2.898m342.327-128.389c-6.527-11.4-6.083-21.838 1.103-30.974 6.052-7.694 16.842-11 26.484-8.117 10.447 3.125 17.756 12.715 18.087 23.733.315 10.49-6.322 20.467-16.058 24.134-10.657 4.015-21.771.815-29.616-8.776M397.8 227.789c18.238-16.137 39.743-2.936 42.404 13.375 1.899 11.642-3.5 22.705-14.031 27.604-10.495 4.882-23.147 1.723-30.466-7.608-7.322-9.333-7.388-21.57-.151-30.888.61-.785 1.324-1.488 2.245-2.483m90.988 570.327c1.544-15.054 13.216-25.093 27.511-24.092 13.18.923 23.455 12.911 22.887 26.7-.548 13.298-11.778 23.9-25.25 23.836-14.175-.066-24.758-10.99-25.148-26.444M619.05 221.753c12.108 5.31 18.144 16.014 16.154 28.134-1.873 11.4-11.17 19.978-22.757 20.996-11.059.971-21.825-5.934-25.613-16.719-3.31-9.427-1.647-18.198 5.115-25.478 7.272-7.83 16.286-10.522 27.101-6.933M351.59 718.536c6.217 11.144 5.634 21.377-1.491 30.104-6.667 8.166-17.34 11.231-27.503 7.897-10.33-3.39-17.061-12.837-17.05-23.931.01-11.051 6.347-20.066 16.647-23.682 10.917-3.833 21.731-.384 29.397 9.612m-20.807-397.94c-15.997-.703-26.244-11.103-26.02-25.967.202-13.488 11.444-24.454 25.14-24.523 12.942-.065 23.99 10.129 25.008 23.074 1.03 13.1-7.996 24.85-20.742 26.99-.983.166-1.976.275-3.386.426m389.337-17.657c-4.917 12.003-15.893 18.632-27.318 16.81-12.063-1.923-20.636-11.519-21.461-24.022-.727-10.996 7.176-22.294 18.058-25.16 9.303-2.45 17.901-.753 24.836 6.268 7.182 7.271 8.992 15.986 5.885 26.104M278.823 678.95c-12.104 5.226-23.679 2.945-31.17-5.921-7.002-8.286-7.836-20.531-2.031-29.801 5.325-8.505 15.316-13.017 25.303-11.427 9.813 1.561 17.96 9.117 20.361 18.884 2.409 9.796-1.26 20.28-9.196 26.208-.93.694-1.947 1.272-3.267 2.057m-14.438-332.466c14.736.21 25.418 9.2 26.686 22.063 1.307 13.255-6.592 24.58-19.234 27.575-13.68 3.241-26.996-5.206-30.12-19.107-3.081-13.714 5.615-27.267 19.293-30.046.975-.199 1.97-.297 3.375-.485m-56.542 212.424c3.128-12.18 10.553-18.975 22.013-20.501 9.648-1.285 19.387 3.884 24.477 12.99 4.944 8.847 3.926 20-2.559 28.017-6.804 8.412-18.95 11.536-28.85 7.42-10.762-4.474-16.674-15.22-15.081-27.926m606.039-12.76c8.072 11.092 8.08 22.961.247 32.419-7.311 8.829-19.858 11.81-29.784 6.777-10.032-5.087-14.932-13.38-14.46-24.706.401-9.589 6.964-18.433 16.534-21.701 10.484-3.582 19.642-1.217 27.463 7.21"/><path fill="#FCFCFE" opacity="1" d="M679.074 714.074c12.263-10.718 29.143-9.413 38.08 2.67 8.63 11.667 5.603 28.566-6.525 36.43-10.232 6.634-24.221 4.777-32.276-4.285-8.766-9.863-8.577-23.82.721-34.815"/><path fill="#FBFCFD" opacity="1" d="M773.279 392.418c-13.438 6.6-27.264 3.202-34.084-8.086-7.052-11.67-4.346-26.244 6.293-33.893 11.474-8.25 27.001-5.664 35.36 5.888 8.34 11.527 5.198 27.036-7.57 36.091"/><path fill="#FCFCFE" opacity="1" d="M239.548 488.854c-14.11 3.237-25.265-2.202-30.582-14.612-4.73-11.04-1.03-23.636 8.945-30.456 11.79-8.061 27.805-4.574 35.241 7.672 7.472 12.305 3.246 28.779-9.12 35.45-1.313.708-2.726 1.228-4.484 1.946"/><path fill="#FCFDFE" opacity="1" d="M787.233 439.93c13.76-3.727 27.706 3.568 31.583 16.208 3.998 13.038-2.64 26.717-15.214 31.351-12.878 4.746-26.62-1.201-31.843-13.781-5.327-12.833.05-26.608 12.776-32.709.749-.359 1.531-.646 2.698-1.068"/><path fill="#FBFCFD" opacity="1" d="M582.181 863.936c-5.309 8.471-12.902 11.98-21.694 10.301-8.533-1.63-14.257-7.59-15.803-16.456-1.373-7.877 2.492-16.167 9.53-20.44 7.199-4.37 16.6-3.539 23.267 2.058 6.664 5.593 8.519 14.82 4.7 24.537m119.2-69.613c11.22 5.296 15.892 15.823 11.829 25.981-3.945 9.863-14.568 15.177-24.315 12.163-10.612-3.28-16.585-14.27-13.522-24.875 3.185-11.023 13.672-16.51 26.008-13.27M317 802.1c7.006-8.431 16.756-10.815 25.164-6.408 8.41 4.409 12.863 14.343 10.411 23.229-2.516 9.117-11.301 15.527-20.51 15.025-14.084-.766-24.738-17.885-15.064-31.847m155.529 33.203c10.438 4.215 15.174 11.265 14.482 21.122-.59 8.419-6.762 15.633-15.167 17.645-8.287 1.984-15.216-.516-20.39-7.073-5.054-6.407-5.93-13.754-2.224-21.06 3.743-7.38 9.944-11.43 18.475-11.256 1.486.03 2.968.329 4.824.622m-240.453-78.479c-11.423-1.61-17.905-7.515-19.476-17.36a19.51 19.51 0 0 1 10.81-20.65c7.18-3.47 14.286-3.124 20.692 1.793 6.838 5.248 9.662 12.464 7.537 20.792-1.974 7.737-6.986 13.138-15.194 14.866-1.298.273-2.63.378-4.37.559m560.874-40.867c9.335-1.369 16.004 2.265 20.56 9.733 4.172 6.837 3.99 14.002-.186 20.758-4.176 6.757-10.47 10.11-18.489 9.464-9.503-.765-17.103-8.343-18.077-17.68-1.099-10.533 4.768-18.785 16.192-22.275m105.107-216.999c6.718 8.55 7.39 17.136 2.197 25.116-4.474 6.875-12.916 10.299-20.81 8.44-7.847-1.849-14.283-9.085-15.279-17.18-.996-8.099 3.139-16.27 10.187-20.133 7.391-4.05 16.207-2.735 23.705 3.757"/><path fill="#FAFBFD" opacity="1" d="M223.202 310.03c-10.07-5.963-13.826-14.23-11.154-23.883 2.275-8.217 10.12-14.15 18.908-14.277 8.375-.122 14.313 3.871 17.852 11.227 3.724 7.743 2.928 15.336-2.707 21.85-5.308 6.135-12.177 8.372-20.207 6.064-.793-.228-1.555-.565-2.692-.981"/><path fill="#FBFCFD" opacity="1" d="M181.946 620.136c5.901 9.261 5.503 19.042-.835 26.01-5.827 6.406-15.3 8.134-23.269 4.245-7.62-3.717-11.7-10.736-11.091-19.473.59-8.478 4.985-14.431 12.974-17.128 8.493-2.867 16.021-.877 22.221 6.346M344.65 230.785c-9.404 4.958-18.8 3.945-25.188-2.475-6.2-6.232-7.833-15.4-3.878-23.004 3.91-7.517 10.406-11.307 18.714-11.02 8.17.283 14.32 4.658 17.39 12.206 3.123 7.675 1.856 15.05-3.781 21.395-.88.989-1.96 1.8-3.257 2.898m102.227-74.955c11.606-1.421 21.43 5.297 23.053 15.424 1.853 11.554-4.655 21.68-15.335 23.859-10.533 2.148-21.015-4.742-23.369-15.361-2.378-10.73 4.035-20.76 15.651-23.923m423.608 492.854c-9.97 4.248-18.733 2.451-24.732-4.817-5.578-6.759-6.254-16.218-1.664-23.26 4.956-7.604 14.093-11.242 22.605-8.623 7.902 2.431 12.58 8.13 13.768 16.163 1.29 8.711-2.135 15.601-9.977 20.537"/><path fill="#FAFBFD" opacity="1" d="M159.244 377.019c11.854-2.81 21.503 2.343 24.908 13.002 3.174 9.938-1.99 20.932-11.569 24.626-9.761 3.765-20.571-.597-25.265-10.193-5.1-10.43-.144-22.181 11.926-27.435"/><path fill="#FBFCFD" opacity="1" d="M777.839 280.005c7.17-9.062 16.683-11.74 25.195-7.36 8.93 4.596 13.34 14.576 10.446 23.942-2.426 7.853-7.707 12.733-15.877 13.946-7.693 1.143-14.19-1.532-18.795-7.763-5.242-7.094-5.398-14.723-.97-22.765m86.434 134.435c-10.341.903-18.683-4.045-21.876-12.64-3.136-8.441-.566-17.618 6.405-22.87 7.56-5.697 17.167-5.786 24.49.079 6.283 5.032 8.636 11.718 6.854 19.586-1.892 8.353-6.933 13.822-15.873 15.845M591.054 190.081c-7.832 5.98-16.326 6.743-23.437 2.32-7.035-4.375-10.947-13.149-9.389-21.058 1.539-7.807 8.593-14.516 16.68-15.861 7.828-1.303 16.26 2.891 20.152 10.022 4.262 7.81 2.876 16.845-4.006 24.577m102.983 43.194c-9.477-.688-15.752-5.315-18.413-13.966-2.436-7.922-.714-15.26 5.692-20.824 6.305-5.477 13.603-6.71 21.334-3.242 7.99 3.583 12.714 13.118 11.126 21.926-1.687 9.358-8.849 15.321-19.739 16.106M151.213 532.522c-12.718 3.898-23.47-1.515-26.822-13.134-3.019-10.462 3.323-21.793 13.833-24.717 9.477-2.637 19.863 2.627 23.614 11.967 3.917 9.755-.144 19.897-10.625 25.884"/><path fill="#8F99BF" opacity="1" d="M979.182 960.852c2.46 1.74 4.548 3.42 6.852 4.716 2.114 1.19 4.46 1.965 6.782 2.957-5.078 3.305-10.488 5.758-14.424 9.687-3.961 3.954-6.456 9.377-9.944 14.69-3.643-11.798-11.421-19.762-23.548-23.883 11.89-4.26 19.914-11.807 23.405-23.895 3.7 5.41 7.15 10.455 10.877 15.728"/><path fill="#F9FAFD" opacity="1" d="M518.015 888.623c6.7 3.17 9.577 7.564 8.985 13.728-.53 5.509-3.658 9.08-8.827 10.881-4.91 1.712-10.327.11-13.895-4.044-3.396-3.952-3.942-9.63-1.387-14.411 2.85-5.333 7.654-7.386 15.124-6.154M69.102 586.589c-2.224-8.142.301-14.33 6.663-17.004 5.845-2.458 12.862-.192 16.103 5.201 3.29 5.474 2.1 12.63-2.775 16.71-6.252 5.231-14.771 3.284-19.99-4.907m8.162-152.607c8.325.236 13.363 4.536 14.024 11.587.635 6.77-3.42 12.321-10.154 13.902-5.769 1.354-12.138-2.144-14.456-7.94-3.13-7.825 1.078-15.074 10.586-17.549"/><path fill="#F9FBFD" opacity="1" d="M138.773 717.859c-6.567 3.583-12.424 3.054-16.785-1.278-4.189-4.161-5.043-10.462-2.118-15.625 2.768-4.887 8.386-7.344 14.107-6.025 4.78 1.101 7.871 4.121 9.29 8.802 1.68 5.547.036 10.127-4.494 14.126"/><path fill="#F9FAFD" opacity="1" d="M961.152 577.805c.58 9.328-4.568 15.445-12.562 15.37-7.777-.074-13.464-6.663-12.651-14.66.588-5.793 5.452-10.438 11.647-11.125 6.164-.684 10.971 2.887 13.566 10.415"/><path fill="#F8FAFC" opacity="1" d="M512.174 139.746c-7.598-1.754-11.314-5.308-12.043-11.16-.673-5.391 1.894-10.432 6.566-12.9 6.75-3.564 15.013-.665 17.886 6.275 2.835 6.848-.586 14.535-7.64 16.97-1.388.48-2.911.568-4.77.815"/><path fill="#F9FBFD" opacity="1" d="M940.919 456.249c-5.115-4.387-6.436-9.581-4.322-15.464 1.753-4.876 6.867-7.978 12.144-7.867 5.195.109 9.756 3.454 11.68 8.565 1.817 4.832.426 10.743-3.55 14.032-4.927 4.078-10.213 4.228-15.952.734"/><path fill="#F8FAFC" opacity="1" d="M651.856 155.98c-2.905-9.132.287-16.113 8.008-18.189 7.109-1.911 13.807 2.156 15.577 9.459 1.403 5.79-1.571 11.843-7.12 14.493-5.923 2.828-11.64.93-16.465-5.763"/><path fill="#F9FBFD" opacity="1" d="M137.937 333.117c-8.089 1.361-14.452-2.62-15.892-9.622-1.408-6.845 2.444-13.306 9.048-15.18 6.19-1.756 13.114 1.827 15.384 7.963 2.647 7.153-.408 13.428-8.54 16.839"/><path fill="#F9FAFD" opacity="1" d="M882.66 708.415c-.107-7.74 3.404-12.96 9.33-14.366s11.888 1.408 14.565 6.874c2.65 5.41 1.229 11.792-3.502 15.726-7.352 6.113-17.554 2.171-20.393-8.234m-81.217 113.29c-8.254 1.722-13.878-.787-16.42-7.017-2.255-5.53-.36-12.108 4.467-15.501 6.008-4.224 13.742-2.68 17.823 3.56 4.41 6.74 2.213 14.231-5.87 18.958"/><path fill="#F9FBFD" opacity="1" d="M351.611 877.059c1.186-8.12 5.713-12.413 12.675-12.4 6.386.01 11.406 4.296 12.464 10.64 1.044 6.257-2.359 12.079-8.302 14.205-8.294 2.966-15.708-2.342-16.837-12.445"/><path fill="#F9FAFD" opacity="1" d="M653.32 888.635c-7.27 2.527-13.216.744-16.436-4.638-3.235-5.404-2.315-12.497 2.13-16.425 4.583-4.05 11.446-4.138 16.59-.507 6.663 4.701 6.544 17.348-2.283 21.57"/><path fill="#F9FBFD" opacity="1" d="M228.841 798.325c8.033-.947 12.717 1.269 15.242 6.891 2.343 5.217 1.113 11.447-3.083 14.974-4.031 3.387-8.648 4.19-13.46 2.116-4.805-2.071-7.462-5.907-7.646-11.226-.217-6.258 2.98-10.263 8.947-12.755"/><path fill="#F8FAFC" opacity="1" d="M796.725 204.033c7.616 2.053 11.191 6.053 11.375 12.29.173 5.854-3.235 10.948-8.63 12.585-5.04 1.53-9.609.528-13.173-3.442-3.5-3.9-4.458-8.557-2.485-13.433 2.222-5.494 6.526-8.167 12.913-8"/><path fill="#F9FBFD" opacity="1" d="M887.27 329.859c-4.532-4.213-6.358-8.939-4.406-14.647 1.594-4.663 5.002-7.41 9.805-8.222 5.972-1.01 11.028 1.711 13.541 7.042 2.347 4.977 1.297 11.073-2.541 14.765-4.293 4.128-10.026 4.583-16.399 1.062"/><path fill="#F9FAFD" opacity="1" d="M359.59 137.692c7.516-.065 11.64 2.471 13.677 8.11 1.833 5.073.475 10.626-3.45 14.109-3.943 3.498-9.772 4.16-14.402 1.633-4.523-2.468-7.055-7.586-6.454-13.05.587-5.344 4.02-8.94 10.63-10.802"/><path fill="#F9FBFD" opacity="1" d="M242.377 209.756c4.063 7.235 3.306 13.563-1.85 17.836-4.576 3.793-11.605 3.758-16.079-.08-5.534-4.75-6.243-13.043-1.561-18.27 5.291-5.909 12.938-5.817 19.49.514"/><path fill="#253263" opacity="1" d="M319.362 621.18c18.644-.3 37.605-.34 57.018-.314-.307.421-1.066 1.083-1.827 1.085-17.488.054-34.977.042-52.465.007-.804-.002-1.606-.336-2.726-.777m329.007.003c18.974-.314 38.272-.374 58.023-.42-.751.416-1.955 1.163-3.162 1.168-17.38.073-34.762.053-52.143.02-.799-.002-1.597-.335-2.718-.768"/></svg>