<svg viewBox="0 0 512 512" xmlns="http://www.w3.org/2000/svg" fill-rule="evenodd" clip-rule="evenodd" stroke-linejoin="round" stroke-miterlimit="2"><path d="M93.346 37.042L458.463 117.8h37.536v357.155H84.247c-14.13.314-25.841-10.887-26.155-25.017a24.466 24.466 0 01-.007-.576v-35.26l35.261-377.06z" fill="#705a01" fill-rule="nonzero"/><path d="M460.739 395.332H93.347V37.039h341.231c14.13-.314 25.84 10.887 26.154 25.018.005.192.007.383.007.574v332.7z" fill="#dbae03" fill-rule="nonzero"/><path d="M16 441.97l77.914-46.635.001-358.293-77.914 46.635L16 441.97z" fill="#eacd5d" fill-rule="nonzero"/><path d="M302.066 152.492v127.392h25.592v35.83H226.995v-35.83h25.592V152.492h-26.161V117.23h100.663v35.26h-25.023z" fill="#fff" fill-rule="nonzero"/></svg>