<svg version="1.1" id="Layer_1" xmlns:x="ns_extend;" xmlns:i="ns_ai;" xmlns:graph="ns_graphs;" xmlns="http://www.w3.org/2000/svg" xmlns:xlink="http://www.w3.org/1999/xlink" x="0px" y="0px" viewBox="0 0 85.6 96.6" style="enable-background:new 0 0 85.6 96.6;" xml:space="preserve">
 <style type="text/css">
  .st0{fill:#CCCCCC;}
	.st1{fill:#A6A6A6;}
	.st2{fill:#FFFFFF;}
	.st3{display:none;}
	.st4{display:inline;}
	.st5{fill:none;stroke:#ED1C24;stroke-width:0.3175;stroke-miterlimit:10;stroke-dasharray:2.1169;}
	.st6{display:inline;fill:none;stroke:#ED1C24;stroke-width:0.3175;stroke-miterlimit:10;stroke-dasharray:2.1169;}
	.st7{display:inline;fill:none;stroke:#ED1C24;stroke-width:0.3;stroke-miterlimit:10;stroke-dasharray:2;}
	.st8{display:inline;fill:none;stroke:#ED1C24;stroke-width:0.3;stroke-miterlimit:10;stroke-dasharray:1.9999;}
	.st9{display:inline;opacity:0.15;fill:#ED1C24;enable-background:new    ;}
	.st10{display:inline;fill:none;stroke:#ED1C24;stroke-width:0.317;stroke-miterlimit:10;stroke-dasharray:2.1132;}
 </style>
 <metadata>
  <sfw xmlns="ns_sfw;">
   <slices>
   </slices>
   <sliceSourceBounds bottomLeftOrigin="true" height="185.9" width="366.8" x="-44.6" y="-44.7">
   </sliceSourceBounds>
  </sfw>
 </metadata>
 <g id="Logo">
  <g>
   <path class="st0" d="M85.6,67.6V22.5L46.5,0v17.3l15.3,8.8c0.6,0.3,0.6,1.2,0,1.5L43.6,38.1c-0.5,0.3-1.2,0.3-1.7,0L23.7,27.6
			c-0.6-0.3-0.6-1.2,0-1.5L39,17.3V0L0,22.5v45.1v-0.2v0.2L15,59V41.3c0-0.6,0.7-1.1,1.3-0.7l18.2,10.5c0.5,0.3,0.9,0.9,0.9,1.5v21
			c0,0.6-0.7,1.1-1.3,0.7l-15.3-8.8l-15,8.6l39,22.5l39-22.5l-15-8.6l-15.3,8.8c-0.5,0.3-1.3-0.1-1.3-0.7v-21c0-0.6,0.3-1.2,0.9-1.5
			l18.2-10.5c0.5-0.3,1.3,0.1,1.3,0.7V59L85.6,67.6z">
   </path>
   <path class="st1" d="M42.8,96.6l39-22.5l-15-8.6l-15.3,8.8c-0.5,0.3-1.3-0.1-1.3-0.7v-21c0-0.6,0.3-1.2,0.9-1.5l18.2-10.5
			c0.5-0.3,1.3,0.1,1.3,0.7V59l15,8.6V22.5L42.8,47.2V96.6z">
   </path>
   <path class="st2" d="M46.5,0v17.3l15.3,8.8c0.6,0.3,0.6,1.2,0,1.5L43.6,38.1c-0.5,0.3-1.2,0.3-1.7,0L23.7,27.6
			c-0.6-0.3-0.6-1.2,0-1.5L39,17.3V0L0,22.5l42.8,24.7l42.8-24.7L46.5,0z">
   </path>
   <path class="st0" d="M34,74.3l-15.3-8.8l-15,8.6l39,22.5V47.2L0,22.5v45.1v-0.2v0.2L15,59V41.3c0-0.6,0.7-1.1,1.3-0.7l18.2,10.5
			c0.5,0.3,0.9,0.9,0.9,1.5v21C35.3,74.2,34.6,74.6,34,74.3z">
   </path>
  </g>
 </g>
 <g id="Guides" class="st3">
  <g class="st4">
   <line class="st5" x1="-44.6" y1="22.5" x2="322.2" y2="22.5">
   </line>
  </g>
  <line class="st6" x1="-44.6" y1="69" x2="322.2" y2="69">
  </line>
  <line class="st7" x1="0" y1="141.3" x2="0" y2="-44.6">
  </line>
  <line class="st7" x1="70.6" y1="141.3" x2="70.6" y2="-44.6">
  </line>
  <line class="st8" x1="152.3" y1="141.3" x2="152.3" y2="-44.6">
  </line>
  <line class="st8" x1="184.5" y1="141.3" x2="184.5" y2="-44.6">
  </line>
  <line class="st8" x1="189.9" y1="141.3" x2="189.9" y2="-44.6">
  </line>
  <line class="st7" x1="262.7" y1="141.3" x2="262.7" y2="-44.6">
  </line>
  <line class="st7" x1="269.1" y1="-44.6" x2="269.1" y2="141.3">
  </line>
  <line class="st7" x1="277.6" y1="-44.6" x2="277.6" y2="141.3">
  </line>
  <line class="st8" x1="85.6" y1="-44.6" x2="85.6" y2="141.3">
  </line>
  <line class="st8" x1="108.1" y1="141.3" x2="108.1" y2="-44.6">
  </line>
  <line class="st8" x1="146.9" y1="141.3" x2="146.9" y2="-44.6">
  </line>
  <line class="st7" x1="0" y1="141.3" x2="0" y2="-44.6">
  </line>
  <path class="st9" d="M108.1-17.2v-27.4h11.5v27.8c0,4.5,2.3,7.6,8,7.6c5.3,0,7.9-3.2,7.9-7.8v-27.6H147v27.4
		C147-6.5,140.6,0,127.6,0C114.5,0,108.1-6.4,108.1-17.2z">
  </path>
  <path class="st9" d="M-17.2,69h-27.4V57.5h27.8c4.5,0,7.6-2.3,7.6-8c0-5.3-3.2-7.9-7.8-7.9h-27.6V30.1h27.4
		C-6.5,30.1,0,36.6,0,49.5C0,62.5-6.4,69-17.2,69z">
  </path>
  <line class="st10" x1="-44.6" y1="0" x2="320.1" y2="0">
  </line>
  <line class="st10" x1="-44.6" y1="96.6" x2="322.2" y2="96.6">
  </line>
 </g>
</svg>